#!OML:ASF F:\VICON\USERDATA\INSTALL\rory3\rory3.ASF
:FULLY-SPECIFIED
:DEGREES
1290
root -3.10759 17.3955 -6.28488 -1.99355 2.4518 1.42122
lowerback 5.8938 0.169537 -0.447367
upperback 2.38794 0.237064 2.61366
thorax -0.858699 0.107113 2.92595
lowerneck -14.2094 0.962581 -9.19661
upperneck 21.2435 2.43801 4.88647
head 8.80868 0.939102 3.48783
rclavicle 2.28602e-015 1.59028e-015
rhumerus 36.3293 -48.4494 -32.0606
rradius 77.7326
rwrist 6.83835
rhand -41.1939 -1.84628
rfingers 7.12502
rthumb -14.1185 -31.3466
lclavicle 2.28602e-015 1.59028e-015
lhumerus 0.809389 47.6002 18.1388
lradius 74.4894
lwrist 29.0733
lhand -23.6637 31.5168
lfingers 7.12502
lthumb 2.80215 61.4781
rfemur -1.22378 0.429176 21.4836
rtibia 34.1193
rfoot -26.5016 0.600802
rtoes -2.03095
lfemur -26.1869 7.06733 -21.1423
ltibia 38.0044
lfoot -10.595 0.490521
ltoes -20.0801
1291
root -3.07145 17.4059 -6.33278 -2.18792 2.27254 1.43868
lowerback 6.04911 0.13511 -0.468572
upperback 2.42417 0.191818 2.69269
thorax -0.905527 0.0841404 3.02292
lowerneck -14.0074 0.960671 -9.19802
upperneck 21.2303 2.39688 4.96439
head 8.76821 0.927053 3.50633
rclavicle 7.15625e-015 -7.95139e-015
rhumerus 36.676 -48.5158 -32.646
rradius 77.6042
rwrist 6.7736
rhand -41.3976 -1.94358
rfingers 7.12502
rthumb -14.3148 -31.4301
lclavicle 7.15625e-015 -7.95139e-015
lhumerus 0.970513 47.4662 18.5416
lradius 75.3492
lwrist 29.1589
lhand -23.4651 31.0711
lfingers 7.12502
lthumb 2.99397 61.0298
rfemur -1.21187 0.496862 21.2977
rtibia 34.1254
rfoot -26.3049 0.735449
rtoes -1.91003
lfemur -25.895 6.7472 -20.6335
ltibia 39.0504
lfoot -10.9109 0.413204
ltoes -21.9103
1292
root -3.03597 17.4203 -6.38001 -2.39191 2.11845 1.37393
lowerback 6.20994 0.0678027 -0.430386
upperback 2.46362 0.106544 2.79185
thorax -0.949521 0.0412907 3.11025
lowerneck -13.7715 0.989327 -9.09948
upperneck 21.1126 2.38702 4.97407
head 8.68578 0.932562 3.48446
rclavicle 5.56597e-015 8.74653e-015
rhumerus 37.1141 -48.4514 -33.413
rradius 77.4616
rwrist 6.63969
rhand -41.496 -1.7107
rfingers 7.12502
rthumb -14.4096 -31.1905
lclavicle 5.56597e-015 8.74653e-015
lhumerus 1.03526 47.2755 18.9541
lradius 76.3076
lwrist 29.2948
lhand -23.7581 30.7262
lfingers 7.12502
lthumb 2.71096 60.6887
rfemur -1.17365 0.621545 21.2211
rtibia 34.1212
rfoot -26.1239 0.838577
rtoes -1.72871
lfemur -25.5866 6.48768 -20.0382
ltibia 39.9989
lfoot -10.9666 0.339545
ltoes -21.4087
1293
root -3.00095 17.4311 -6.42295 -2.51836 1.95911 1.43097
lowerback 6.2618 0.00476706 -0.49826
upperback 2.50404 0.0188241 2.83502
thorax -0.931571 -0.00364011 3.19961
lowerneck -13.6199 0.994641 -9.07562
upperneck 20.971 2.36442 5.01315
head 8.61064 0.930118 3.48466
rclavicle -1.10325e-014 5.56597e-015
rhumerus 37.4653 -48.3602 -34.1777
rradius 77.3949
rwrist 6.39529
rhand -41.6234 -1.68525
rfingers 7.12502
rthumb -14.5323 -31.1563
lclavicle -1.10325e-014 5.56597e-015
lhumerus 1.12491 47.0673 19.3945
lradius 77.2179
lwrist 29.282
lhand -23.8996 30.3023
lfingers 7.12502
lthumb 2.57435 60.2665
rfemur -1.18344 0.797944 21.0226
rtibia 34.0911
rfoot -25.9373 0.818388
rtoes -1.95731
lfemur -25.2822 6.2593 -19.5792
ltibia 40.8692
lfoot -10.9022 0.50128
ltoes -20.866
1294
root -2.9634 17.4375 -6.46459 -2.5739 1.79442 1.64015
lowerback 6.25852 -0.0132454 -0.703897
upperback 2.52445 -0.017652 2.84344
thorax -0.906222 -0.023422 3.32713
lowerneck -13.5536 0.993752 -9.19542
upperneck 20.8585 2.34174 5.20152
head 8.5566 0.931899 3.56223
rclavicle 4.57205e-015 -1.90833e-014
rhumerus 37.614 -48.2798 -34.6773
rradius 77.3126
rwrist 6.07429
rhand -41.8735 -1.83359
rfingers 7.12502
rthumb -14.7733 -31.2871
lclavicle 4.57205e-015 -1.90833e-014
lhumerus 1.23232 46.7158 19.9053
lradius 78.1005
lwrist 29.0487
lhand -23.8441 29.8378
lfingers 7.12502
lthumb 2.62796 59.8013
rfemur -1.27787 0.978264 20.6379
rtibia 34.0693
rfoot -25.7797 0.852575
rtoes -1.89259
lfemur -25.0094 6.0197 -19.3198
ltibia 41.6849
lfoot -10.8882 0.921088
ltoes -21.7539
1295
root -2.92527 17.4445 -6.50743 -2.68838 1.62514 1.62947
lowerback 6.35126 -0.0157343 -0.648272
upperback 2.51287 -0.0166079 2.85609
thorax -0.969806 -0.0219913 3.3092
lowerneck -13.3401 1.00509 -9.17656
upperneck 20.6968 2.28827 5.39958
head 8.46243 0.931013 3.61264
rclavicle -4.96962e-015 1.59028e-014
rhumerus 37.3947 -48.14 -34.9461
rradius 77.2666
rwrist 5.85509
rhand -42.2698 -1.95773
rfingers 7.12502
rthumb -15.1551 -31.3828
lclavicle -4.96962e-015 1.59028e-014
lhumerus 1.4173 46.204 20.4995
lradius 79.0347
lwrist 28.8522
lhand -23.7519 29.371
lfingers 7.12502
lthumb 2.71701 59.3335
rfemur -1.33606 1.21825 20.5267
rtibia 34.0417
rfoot -25.6607 0.82616
rtoes -1.85596
lfemur -24.7043 5.80867 -18.806
ltibia 42.4786
lfoot -10.8815 1.33539
ltoes -21.9448
1296
root -2.88764 17.4559 -6.54718 -2.75363 1.4734 1.50867
lowerback 6.33015 -0.0624504 -0.517785
upperback 2.50275 -0.0703003 2.91719
thorax -0.965287 -0.0484979 3.30251
lowerneck -13.1482 1.00528 -9.15978
upperneck 20.4949 2.23513 5.5426
head 8.36029 0.924851 3.64381
rclavicle -3.08116e-015 7.15625e-015
rhumerus 37.2155 -47.9011 -35.3071
rradius 77.2733
rwrist 5.57463
rhand -42.5175 -2.10653
rfingers 7.12502
rthumb -15.3937 -31.5134
lclavicle -3.08116e-015 7.15625e-015
lhumerus 1.59779 45.8235 21.1687
lradius 79.9837
lwrist 28.4798
lhand -23.6615 28.9012
lfingers 7.12502
lthumb 2.80426 58.8625
rfemur -1.41513 1.4946 20.5497
rtibia 33.9937
rfoot -25.5212 0.805342
rtoes -1.44653
lfemur -24.427 5.6122 -18.1612
ltibia 43.2615
lfoot -10.8747 1.84421
ltoes -21.0968
1297
root -2.849 17.4685 -6.58243 -2.70955 1.38548 1.45471
lowerback 6.1031 -0.149435 -0.52937
upperback 2.54686 -0.188943 3.02653
thorax -0.785753 -0.110577 3.42904
lowerneck -13.2049 0.964069 -9.2718
upperneck 20.3285 2.17632 5.69237
head 8.31527 0.907523 3.70374
rclavicle 6.36111e-015 2.38542e-014
rhumerus 37.3206 -47.606 -35.8586
rradius 77.2888
rwrist 5.20618
rhand -42.681 -2.28906
rfingers 7.12502
rthumb -15.5511 -31.6838
lclavicle 6.36111e-015 2.38542e-014
lhumerus 1.67669 45.524 21.8356
lradius 80.9466
lwrist 27.9712
lhand -23.4764 28.6138
lfingers 7.12502
lthumb 2.98305 58.5727
rfemur -1.55841 1.6428 20.4698
rtibia 33.8956
rfoot -25.3114 0.758982
rtoes -1.41255
lfemur -24.2421 5.43387 -17.6214
ltibia 44.0197
lfoot -10.9381 2.44743
ltoes -20.4728
1298
root -2.8086 17.4792 -6.61658 -2.63416 1.30111 1.42922
lowerback 5.90581 -0.180643 -0.480668
upperback 2.53426 -0.229605 3.0532
thorax -0.686549 -0.131651 3.43037
lowerneck -13.1341 0.855465 -9.48908
upperneck 20.0795 1.98864 6.06571
head 8.22512 0.844662 3.83977
rclavicle 8.15017e-015 -2.8625e-014
rhumerus 36.9935 -47.3261 -36.1501
rradius 77.3741
rwrist 4.83225
rhand -42.7057 -2.35071
rfingers 7.12502
rthumb -15.5749 -31.7436
lclavicle 8.15017e-015 -2.8625e-014
lhumerus 1.96556 44.994 22.6312
lradius 81.8687
lwrist 27.5832
lhand -23.4745 28.227
lfingers 7.12502
lthumb 2.98489 58.1859
rfemur -1.71892 1.76296 20.3417
rtibia 33.7651
rfoot -25.1351 0.742204
rtoes -1.6023
lfemur -24.05 5.32263 -17.1246
ltibia 44.7056
lfoot -11.0062 3.04716
ltoes -19.8452
1299
root -2.7673 17.4903 -6.64986 -2.59551 1.19275 1.36781
lowerback 5.81282 -0.221346 -0.388077
upperback 2.48684 -0.278726 3.07699
thorax -0.680939 -0.155458 3.40522
lowerneck -13.0531 0.780878 -9.71122
upperneck 19.8493 1.8406 6.47945
head 8.13644 0.803288 3.99477
rclavicle -1.39149e-015 -2.70347e-014
rhumerus 36.4649 -46.9249 -36.2835
rradius 77.4316
rwrist 4.49904
rhand -42.8563 -2.52826
rfingers 7.12502
rthumb -15.7199 -31.9098
lclavicle -1.39149e-015 -2.70347e-014
lhumerus 2.08553 44.3981 23.264
lradius 82.7887
lwrist 27.2446
lhand -23.3955 27.7487
lfingers 7.12502
lthumb 3.06111 57.7065
rfemur -1.83824 1.99332 20.2758
rtibia 33.6249
rfoot -24.9985 0.640444
rtoes -1.7308
lfemur -23.751 5.17672 -16.5757
ltibia 45.2911
lfoot -11.0017 3.70056
ltoes -18.7957
1300
root -2.72581 17.5063 -6.67933 -2.56476 1.05156 1.41319
lowerback 5.77805 -0.267687 -0.463213
upperback 2.36827 -0.341835 3.10819
thorax -0.778958 -0.185652 3.48433
lowerneck -12.9836 0.764148 -9.71474
upperneck 19.7159 1.7923 6.57615
head 8.0817 0.791494 4.01825
rclavicle -9.93923e-017 -2.06736e-014
rhumerus 35.9337 -46.3326 -36.4173
rradius 77.4626
rwrist 4.21653
rhand -43.1925 -2.62345
rfingers 7.12502
rthumb -16.0438 -31.9792
lclavicle -9.93923e-017 -2.06736e-014
lhumerus 1.88767 43.6039 23.6485
lradius 83.6811
lwrist 26.9423
lhand -23.0604 27.2334
lfingers 7.12502
lthumb 3.38477 57.1863
rfemur -1.92378 2.22053 20.077
rtibia 33.4851
rfoot -24.7796 0.563453
rtoes -2.19271
lfemur -23.3732 4.97759 -16.1539
ltibia 45.768
lfoot -10.9362 4.5736
ltoes -17.7426
